<?xml version="1.0" encoding="UTF-8" standalone="no"?>
<svg
   xmlns:dc="http://purl.org/dc/elements/1.1/"
   xmlns:cc="http://creativecommons.org/ns#"
   xmlns:rdf="http://www.w3.org/1999/02/22-rdf-syntax-ns#"
   xmlns:svg="http://www.w3.org/2000/svg"
   xmlns="http://www.w3.org/2000/svg"
   xmlns:sodipodi="http://sodipodi.sourceforge.net/DTD/sodipodi-0.dtd"
   xmlns:inkscape="http://www.inkscape.org/namespaces/inkscape"
   viewBox="0 0 612.164 613.171"
   id="svg3396"
   version="1.1"
   inkscape:version="0.91 r13725"
   sodipodi:docname="no-logo.svg">
  <metadata
     id="metadata3416">
    <rdf:RDF>
      <cc:Work
         rdf:about="">
        <dc:format>image/svg+xml</dc:format>
        <dc:type
           rdf:resource="http://purl.org/dc/dcmitype/StillImage" />
        <dc:title></dc:title>
      </cc:Work>
    </rdf:RDF>
  </metadata>
  <sodipodi:namedview
     pagecolor="#ffffff"
     bordercolor="#666666"
     borderopacity="1"
     objecttolerance="10"
     gridtolerance="10"
     guidetolerance="10"
     inkscape:pageopacity="1"
     inkscape:pageshadow="2"
     inkscape:window-width="1680"
     inkscape:window-height="986"
     id="namedview3414"
     showgrid="false"
     inkscape:zoom="0.59504948"
     inkscape:cx="759.88196"
     inkscape:cy="191.10583"
     inkscape:window-x="0"
     inkscape:window-y="27"
     inkscape:window-maximized="1"
     inkscape:current-layer="layer1" />
  <defs
     id="defs3398">
    <marker
       id="ArrowEnd"
       markerHeight="3"
       markerUnits="strokeWidth"
       markerWidth="4"
       orient="auto"
       refX="0"
       refY="5"
       viewBox="0 0 10 10">
      <path
         d="m0,0 10,5-10,5z"
         id="path3401" />
    </marker>
    <marker
       id="ArrowStart"
       markerHeight="3"
       markerUnits="strokeWidth"
       markerWidth="4"
       orient="auto"
       refX="10"
       refY="5"
       viewBox="0 0 10 10">
      <path
         d="m10,0-10,5 10,5z"
         id="path3404" />
    </marker>
  </defs>
  <g
     inkscape:groupmode="layer"
     id="layer1"
     inkscape:label="bg"
     style="display:inline">
    <rect
       style="opacity:1;fill:#ffffff;fill-opacity:1;stroke:none;stroke-width:6.30000019;stroke-linecap:round;stroke-linejoin:bevel;stroke-miterlimit:4;stroke-dasharray:none;stroke-dashoffset:0"
       id="rect3346"
       width="610.87354"
       height="611.53467"
       x="-0.84017426"
       y="0.79605925" />
  </g>
  <g
     inkscape:groupmode="layer"
     id="layer2"
     inkscape:label="fg">
    <path
       d="m 16.165984,29.81534 392.199426,0 -170.43195,295.17415 0,189.03268 94.33867,0 c 31.64782,0 31.91832,66.88795 0,66.88795 l -235.330042,0 c -31.918343,0 -31.918343,-66.88795 0,-66.88795 l 92.738432,0 0,-190.48601 L 16.165984,29.81534 Z"
       id="path3408"
       inkscape:connector-curvature="0"
       style="fill:#000000" />
    <path
       d="m 252.24483,195.00722 c 16.80528,0 30.43061,-13.62425 30.43061,-30.43168 0,-16.80743 -13.62533,-30.43277 -30.43061,-30.43277 -16.80526,0 -30.43168,13.62749 -30.43168,30.43277 0,16.80526 13.62425,30.43168 30.43168,30.43168 z"
       id="path3410"
       inkscape:connector-curvature="0"
       style="fill:#ffffff" />
    <path
       style=""
       d="M 486.79686,107.59616"
       id="path3412"
       inkscape:connector-curvature="0" />
    <path
       style="opacity:1;fill:#000000;fill-opacity:1;stroke:none;stroke-width:6.30000019;stroke-linecap:round;stroke-linejoin:bevel;stroke-miterlimit:4;stroke-dasharray:none;stroke-dashoffset:0"
       d="m 490.06587,231.76867 32.71272,1e-5 c 7.45347,27.89874 1.22996,51.62498 5.0809,70.08092 l 2.14284,104.59604 c 0.2889,27.48323 1.70107,172.93807 -1.50948,172.93807 l -44.85558,0 c -1.06569,-22.74417 -1.75646,-145.63628 -0.007,-173.83078 L 487.1281,301.8496 c 2.71689,-25.16801 -3.22031,-47.34977 4.36664,-70.08093 z"
       id="rect3336"
       inkscape:connector-curvature="0"
       sodipodi:nodetypes="ccccsccccc" />
    <rect
       style="opacity:1;fill:#000000;fill-opacity:1;stroke:none;stroke-width:6.30000019;stroke-linecap:round;stroke-linejoin:bevel;stroke-miterlimit:4;stroke-dasharray:none;stroke-dashoffset:0"
       id="rect3339"
       width="31.277346"
       height="19.247007"
       x="491.49759"
       y="213.54456" />
    <path
       style="opacity:1;fill:#000000;fill-opacity:1;stroke:none;stroke-width:6.30000019;stroke-linecap:round;stroke-linejoin:bevel;stroke-miterlimit:4;stroke-dasharray:none;stroke-dashoffset:0"
       d="m 552.03842,174.4968 c 4.10873,32.28835 -30.23343,27.09884 -29.26346,40.29472 l -31.27735,0 c -0.45436,-12.3221 -30.11245,-9.79952 -25.68295,-40.19812 z"
       id="rect3341"
       inkscape:connector-curvature="0"
       sodipodi:nodetypes="ccccc" />
    <path
       style="opacity:1;fill:#000000;fill-opacity:1;stroke:none;stroke-width:6.30000019;stroke-linecap:round;stroke-linejoin:bevel;stroke-miterlimit:4;stroke-dasharray:none;stroke-dashoffset:0"
       d="m 469.82997,31.454879 5.80851,-0.0442 0,153.302001 -10.25305,0 c 1.48151,-51.08594 -0.5871,-73.67124 4.44454,-153.257811 z"
       id="rect3344"
       inkscape:connector-curvature="0"
       sodipodi:nodetypes="ccccc" />
    <path
       sodipodi:nodetypes="ccccc"
       inkscape:connector-curvature="0"
       id="path3382"
       d="m 494.78708,31.454879 5.80851,-0.0442 0,153.302001 -10.25305,0 c 1.48151,-51.08594 -3.76908,-76.85322 4.44454,-153.257801 z"
       style="opacity:1;fill:#000000;fill-opacity:1;stroke:none;stroke-width:6.30000019;stroke-linecap:round;stroke-linejoin:bevel;stroke-miterlimit:4;stroke-dasharray:none;stroke-dashoffset:0" />
    <path
       sodipodi:nodetypes="ccccc"
       inkscape:connector-curvature="0"
       id="path3384"
       d="m 547.97428,31.454879 -5.80851,-0.0442 0,153.302001 10.25305,0 c -1.48151,-51.08594 0.5871,-73.67124 -4.44454,-153.257811 z"
       style="opacity:1;fill:#000000;fill-opacity:1;stroke:none;stroke-width:6.30000019;stroke-linecap:round;stroke-linejoin:bevel;stroke-miterlimit:4;stroke-dasharray:none;stroke-dashoffset:0" />
    <path
       style="opacity:1;fill:#000000;fill-opacity:1;stroke:none;stroke-width:6.30000019;stroke-linecap:round;stroke-linejoin:bevel;stroke-miterlimit:4;stroke-dasharray:none;stroke-dashoffset:0"
       d="m 523.1331,31.454879 -5.80851,-0.0442 0,153.302001 10.25305,0 c -1.48151,-51.08594 3.76908,-76.85322 -4.44454,-153.257801 z"
       id="path3386"
       inkscape:connector-curvature="0"
       sodipodi:nodetypes="ccccc" />
  </g>
</svg>
